<?xml version="1.0" standalone="no"?>
<!DOCTYPE svg PUBLIC "-//W3C//DTD SVG 20010904//EN"
 "http://www.w3.org/TR/2001/REC-SVG-20010904/DTD/svg10.dtd">
<svg version="1.0" xmlns="http://www.w3.org/2000/svg"
 width="260.000000pt" height="260.000000pt" viewBox="0 0 260.000000 260.000000"
 preserveAspectRatio="xMidYMid meet">
<metadata>
Created by potrace 1.14, written by Peter Selinger 2001-2017
</metadata>
<g transform="translate(0.000000,260.000000) scale(0.100000,-0.100000)"
fill="#000000" stroke="none">
<path d="M1223 2483 c-24 -2 -43 -8 -43 -14 0 -5 -7 -9 -15 -9 -30 0 -96 -44
-140 -93 -56 -63 -80 -114 -89 -187 -7 -57 7 -189 21 -199 4 -3 15 -19 23 -36
23 -48 101 -118 165 -150 54 -26 70 -29 155 -29 86 1 100 3 155 32 65 33 131
97 156 152 9 19 23 48 30 64 9 18 14 63 13 120 -1 77 -5 100 -27 146 -15 30
-39 69 -55 86 -31 36 -121 94 -145 94 -8 0 -17 4 -19 9 -4 11 -126 20 -185 14z
m129 -62 c87 -34 117 -51 153 -87 22 -22 48 -58 59 -80 10 -21 22 -47 27 -56
12 -24 11 -165 -1 -173 -5 -3 -10 -15 -10 -26 0 -10 -4 -19 -10 -19 -5 0 -10
-7 -10 -15 0 -21 -88 -107 -134 -130 -32 -16 -59 -20 -141 -20 -82 0 -109 4
-141 20 -48 25 -108 86 -125 128 -7 18 -17 35 -23 39 -5 4 -10 49 -10 100 -1
98 16 153 62 206 12 13 22 27 24 31 6 14 109 71 128 71 10 0 22 5 25 10 8 12
96 13 127 1z"/>
<path d="M863 1643 c-51 -54 -102 -109 -113 -123 -12 -14 -32 -37 -45 -52 -52
-58 -135 -178 -135 -194 0 -16 246 -263 262 -264 4 0 26 -19 50 -43 51 -50
112 -97 127 -97 39 0 -24 73 -166 195 -25 22 -61 54 -78 70 -57 53 -135 120
-145 123 -20 7 -9 26 49 86 32 33 72 77 87 96 16 19 40 47 54 61 14 14 48 54
75 89 28 34 60 74 73 89 22 26 26 51 7 58 -6 2 -52 -41 -102 -94z"/>
<path d="M1625 1730 c-3 -5 -3 -16 1 -22 9 -15 66 -90 74 -98 3 -3 16 -18 28
-35 29 -38 140 -160 215 -237 32 -33 57 -61 55 -62 -10 -6 -126 -104 -143
-121 -11 -11 -39 -35 -61 -52 -70 -55 -214 -202 -214 -218 0 -23 21 -18 57 13
18 15 53 45 79 67 97 82 130 112 226 206 54 52 98 100 98 105 0 6 -8 19 -17
30 -10 10 -30 35 -45 56 -15 20 -34 42 -41 50 -7 7 -19 22 -27 34 -43 61 -257
294 -271 294 -4 0 -11 -4 -14 -10z"/>
<path d="M1272 1328 c-19 -19 -14 -56 8 -68 42 -22 80 13 65 60 -7 23 -53 28
-73 8z m48 -32 c0 -11 -19 -15 -25 -6 -3 5 1 10 9 10 9 0 16 -2 16 -4z"/>
<path d="M1032 748 c-27 -27 -8 -271 28 -353 5 -11 17 -38 26 -60 20 -46 68
-111 102 -139 18 -14 20 -21 11 -32 -14 -17 -254 -20 -264 -4 -3 5 -15 10 -26
10 -71 0 -201 106 -244 198 -14 31 -30 65 -35 74 -5 9 -15 79 -21 155 -13 146
-21 171 -45 139 -16 -22 -20 -175 -5 -191 5 -6 11 -28 14 -50 8 -60 29 -135
39 -135 4 0 8 -8 8 -19 0 -10 7 -24 15 -31 8 -7 15 -18 15 -25 0 -19 105 -122
132 -130 13 -4 25 -11 28 -14 8 -10 80 -37 133 -50 92 -22 260 -6 330 30 11 7
25 5 40 -2 57 -32 264 -44 355 -22 119 29 241 133 300 255 17 37 32 74 32 82
0 8 4 17 9 20 10 7 18 47 32 175 9 79 9 96 -4 108 -26 26 -37 5 -37 -67 0 -38
-4 -72 -10 -75 -5 -3 -10 -18 -10 -33 0 -58 -74 -240 -102 -250 -4 -2 -8 -8
-8 -12 0 -12 -51 -64 -70 -73 -8 -4 -33 -18 -55 -32 -22 -13 -50 -24 -62 -25
-12 0 -25 -4 -28 -10 -8 -13 -265 -13 -265 0 0 6 -6 10 -14 10 -8 0 10 25 40
56 30 31 54 63 54 70 0 8 4 14 8 14 5 0 16 19 26 43 10 23 24 56 32 74 8 17
14 42 14 55 0 13 4 28 9 33 5 6 12 58 16 116 6 81 4 108 -5 114 -24 15 -37
-23 -43 -121 -3 -53 -10 -101 -16 -107 -6 -6 -11 -19 -11 -28 0 -21 -55 -143
-78 -172 -17 -22 -78 -81 -107 -105 -23 -19 -49 -7 -108 51 -54 54 -101 137
-112 197 -3 19 -10 44 -15 55 -5 11 -12 68 -15 128 -7 108 -12 126 -33 105z"/>
</g>
</svg>
